<svg width="445" height="53" viewBox="0 0 445 53" fill="none" xmlns="http://www.w3.org/2000/svg">
<g filter="url(#filter0_i_1_75)">
<path d="M27.5255 37.24V8.952C27.5255 8.09866 27.3975 7.56533 27.1415 7.352C26.9282 7.096 26.3948 6.968 25.5415 6.968H6.4695V39.224H25.5415C26.3948 39.224 26.9282 39.1173 27.1415 38.904C27.3975 38.648 27.5255 38.0933 27.5255 37.24ZM0.8375 3.192H28.1015C31.4722 3.192 33.1575 4.87733 33.1575 8.248V37.944C33.1575 41.3147 31.4722 43 28.1015 43H0.8375V3.192ZM50.8415 43H45.3375V11.96H50.8415V43ZM45.2095 5.624V0.119999H51.0335V5.624H45.2095ZM69.858 39.224H83.938C84.706 39.224 85.2607 39.0533 85.602 38.712C85.9433 38.3707 86.114 37.7947 86.114 36.984V17.976C86.114 17.1653 85.9433 16.5893 85.602 16.248C85.2607 15.9067 84.706 15.736 83.938 15.736H69.858C69.0473 15.736 68.514 15.864 68.258 16.12C68.002 16.376 67.874 16.9093 67.874 17.72V37.24C67.874 38.0933 68.002 38.648 68.258 38.904C68.514 39.1173 69.0473 39.224 69.858 39.224ZM91.618 42.168H91.682V46.968C91.682 50.3387 89.9967 52.024 86.626 52.024H63.458V48.248H84.194C85.0047 48.248 85.538 48.12 85.794 47.864C86.05 47.608 86.178 47.0747 86.178 46.264V42.872H86.114V40.952C85.5593 42.3173 84.386 43 82.594 43H67.426C64.0553 43 62.37 41.3147 62.37 37.944V17.016C62.37 13.6453 64.0553 11.96 67.426 11.96H82.594C84.386 11.96 85.5593 12.6427 86.114 14.008V11.96H91.618V42.168ZM108.654 43H103.15V11.96H108.654V43ZM103.022 5.624V0.119999H108.846V5.624H103.022ZM135.927 15.736H128.119V36.92C128.119 37.7307 128.247 38.264 128.503 38.52C128.759 38.776 129.292 38.904 130.103 38.904H135.863V43H127.671C124.3 43 122.615 41.3147 122.615 37.944V15.736H117.623V11.96H122.615V6.584H128.119V11.96H135.927V15.736ZM151.108 39.224H165.188C165.956 39.224 166.511 39.0533 166.852 38.712C167.193 38.3707 167.364 37.7947 167.364 36.984V17.976C167.364 17.1653 167.193 16.5893 166.852 16.248C166.511 15.9067 165.956 15.736 165.188 15.736H151.108C150.297 15.736 149.764 15.864 149.508 16.12C149.252 16.376 149.124 16.9093 149.124 17.72V37.24C149.124 38.0933 149.252 38.648 149.508 38.904C149.764 39.1173 150.297 39.224 151.108 39.224ZM167.364 11.96H172.868V43H167.364V40.952C166.809 42.3173 165.636 43 163.844 43H148.676C145.305 43 143.62 41.3147 143.62 37.944V17.016C143.62 13.6453 145.305 11.96 148.676 11.96H163.844C165.636 11.96 166.809 12.6427 167.364 14.008V11.96ZM190.529 43H185.025V0.183998H190.529V43ZM251.876 16.568H246.244V8.952C246.244 8.09866 246.116 7.56533 245.86 7.352C245.604 7.096 245.071 6.968 244.26 6.968H227.876C227.065 6.968 226.532 7.096 226.276 7.352C226.02 7.56533 225.892 8.09866 225.892 8.952V37.24C225.892 38.0933 226.02 38.648 226.276 38.904C226.532 39.1173 227.065 39.224 227.876 39.224H244.26C245.071 39.224 245.604 39.1173 245.86 38.904C246.116 38.648 246.244 38.0933 246.244 37.24V29.624H251.876V37.944C251.876 41.3147 250.191 43 246.82 43H225.316C221.945 43 220.26 41.3147 220.26 37.944V8.248C220.26 4.87733 221.945 3.192 225.316 3.192H246.82C250.191 3.192 251.876 4.87733 251.876 8.248V16.568ZM271.944 11.96H278.6V15.864H271.112C268.338 15.864 266.952 17.464 266.952 20.664V43H261.448V11.96H266.952V15.864C267.634 13.2613 269.298 11.96 271.944 11.96ZM289.874 25.208H308.818V17.72C308.818 16.9093 308.69 16.376 308.434 16.12C308.178 15.864 307.645 15.736 306.834 15.736H291.858C291.047 15.736 290.514 15.864 290.258 16.12C290.002 16.376 289.874 16.9093 289.874 17.72V25.208ZM289.426 11.96H309.202C312.573 11.96 314.258 13.6453 314.258 17.016V28.984H289.874V37.24C289.874 38.0933 290.002 38.648 290.258 38.904C290.514 39.1173 291.047 39.224 291.858 39.224H306.642C307.495 39.224 308.029 39.1173 308.242 38.904C308.498 38.648 308.626 38.0933 308.626 37.24V34.232H314.066V37.944C314.066 41.3147 312.381 43 309.01 43H289.426C286.055 43 284.37 41.3147 284.37 37.944V17.016C284.37 13.6453 286.055 11.96 289.426 11.96ZM331.358 39.224H345.438C346.206 39.224 346.761 39.0533 347.102 38.712C347.443 38.3707 347.614 37.7947 347.614 36.984V17.976C347.614 17.1653 347.443 16.5893 347.102 16.248C346.761 15.9067 346.206 15.736 345.438 15.736H331.358C330.547 15.736 330.014 15.864 329.758 16.12C329.502 16.376 329.374 16.9093 329.374 17.72V37.24C329.374 38.0933 329.502 38.648 329.758 38.904C330.014 39.1173 330.547 39.224 331.358 39.224ZM347.614 11.96H353.118V43H347.614V40.952C347.059 42.3173 345.886 43 344.094 43H328.926C325.555 43 323.87 41.3147 323.87 37.944V17.016C323.87 13.6453 325.555 11.96 328.926 11.96H344.094C345.886 11.96 347.059 12.6427 347.614 14.008V11.96ZM379.739 15.736H371.931V36.92C371.931 37.7307 372.059 38.264 372.315 38.52C372.571 38.776 373.104 38.904 373.915 38.904H379.675V43H371.483C368.112 43 366.427 41.3147 366.427 37.944V15.736H361.435V11.96H366.427V6.584H371.931V11.96H379.739V15.736ZM411.433 37.24V17.72C411.433 16.9093 411.305 16.376 411.049 16.12C410.835 15.864 410.302 15.736 409.449 15.736H394.857C394.003 15.736 393.449 15.864 393.193 16.12C392.979 16.376 392.873 16.9093 392.873 17.72V37.24C392.873 38.0933 392.979 38.648 393.193 38.904C393.449 39.1173 394.003 39.224 394.857 39.224H409.449C410.302 39.224 410.835 39.1173 411.049 38.904C411.305 38.648 411.433 38.0933 411.433 37.24ZM392.489 11.96H411.817C415.187 11.96 416.873 13.6453 416.873 17.016V37.944C416.873 41.3147 415.187 43 411.817 43H392.489C389.118 43 387.433 41.3147 387.433 37.944V17.016C387.433 13.6453 389.118 11.96 392.489 11.96ZM438.256 11.96H444.912V15.864H437.424C434.651 15.864 433.264 17.464 433.264 20.664V43H427.76V11.96H433.264V15.864C433.947 13.2613 435.611 11.96 438.256 11.96Z" fill="black"/>
</g>
<path d="M27.1415 7.352L26.7574 7.67209L26.7865 7.70701L26.8214 7.73611L27.1415 7.352ZM6.4695 6.968V6.468H5.9695V6.968H6.4695ZM6.4695 39.224H5.9695V39.724H6.4695V39.224ZM27.1415 38.904L27.4951 39.2576L27.4951 39.2576L27.1415 38.904ZM0.8375 3.192V2.692H0.3375V3.192H0.8375ZM0.8375 43H0.3375V43.5H0.8375V43ZM28.0255 37.24V8.952H27.0255V37.24H28.0255ZM28.0255 8.952C28.0255 8.50517 27.9925 8.11516 27.9157 7.79531C27.8414 7.48578 27.7106 7.17535 27.4616 6.96789L26.8214 7.73611C26.8285 7.74198 26.8896 7.80488 26.9433 8.02868C26.9945 8.24217 27.0255 8.54549 27.0255 8.952H28.0255ZM27.5256 7.0319C27.3181 6.78295 27.0077 6.65209 26.6982 6.5778C26.3783 6.50104 25.9883 6.468 25.5415 6.468V7.468C25.948 7.468 26.2513 7.49896 26.4648 7.55019C26.6886 7.6039 26.7515 7.66505 26.7574 7.67209L27.5256 7.0319ZM25.5415 6.468H6.4695V7.468H25.5415V6.468ZM5.9695 6.968V39.224H6.9695V6.968H5.9695ZM6.4695 39.724H25.5415V38.724H6.4695V39.724ZM25.5415 39.724C25.9848 39.724 26.3678 39.6966 26.6796 39.6343C26.9756 39.5751 27.2821 39.4705 27.4951 39.2576L26.7879 38.5504C26.7922 38.5462 26.7784 38.5613 26.7245 38.5844C26.6716 38.6071 26.5935 38.6317 26.4834 38.6537C26.2619 38.698 25.9516 38.724 25.5415 38.724V39.724ZM27.4951 39.2576C27.7171 39.0355 27.8427 38.7293 27.9167 38.4084C27.9923 38.0808 28.0255 37.6877 28.0255 37.24H27.0255C27.0255 37.6456 26.9947 37.9565 26.9423 38.1836C26.8883 38.4174 26.8219 38.5165 26.7879 38.5504L27.4951 39.2576ZM0.8375 3.692H28.1015V2.692H0.8375V3.692ZM28.1015 3.692C29.7098 3.692 30.8241 4.09372 31.5399 4.80955C32.2558 5.52538 32.6575 6.63974 32.6575 8.248H33.6575C33.6575 6.48559 33.2166 5.07195 32.2471 4.10244C31.2775 3.13294 29.8639 2.692 28.1015 2.692V3.692ZM32.6575 8.248V37.944H33.6575V8.248H32.6575ZM32.6575 37.944C32.6575 39.5523 32.2558 40.6666 31.5399 41.3824C30.8241 42.0983 29.7098 42.5 28.1015 42.5V43.5C29.8639 43.5 31.2775 43.0591 32.2471 42.0896C33.2166 41.12 33.6575 39.7064 33.6575 37.944H32.6575ZM28.1015 42.5H0.8375V43.5H28.1015V42.5ZM1.3375 43V3.192H0.3375V43H1.3375ZM50.8415 43V43.5H51.3415V43H50.8415ZM45.3375 43H44.8375V43.5H45.3375V43ZM45.3375 11.96V11.46H44.8375V11.96H45.3375ZM50.8415 11.96H51.3415V11.46H50.8415V11.96ZM45.2095 5.624H44.7095V6.124H45.2095V5.624ZM45.2095 0.119999V-0.380001H44.7095V0.119999H45.2095ZM51.0335 0.119999H51.5335V-0.380001H51.0335V0.119999ZM51.0335 5.624V6.124H51.5335V5.624H51.0335ZM50.8415 42.5H45.3375V43.5H50.8415V42.5ZM45.8375 43V11.96H44.8375V43H45.8375ZM45.3375 12.46H50.8415V11.46H45.3375V12.46ZM50.3415 11.96V43H51.3415V11.96H50.3415ZM45.7095 5.624V0.119999H44.7095V5.624H45.7095ZM45.2095 0.619999H51.0335V-0.380001H45.2095V0.619999ZM50.5335 0.119999V5.624H51.5335V0.119999H50.5335ZM51.0335 5.124H45.2095V6.124H51.0335V5.124ZM85.602 38.712L85.2484 38.3584L85.2484 38.3584L85.602 38.712ZM85.602 16.248L85.2484 16.6016L85.2484 16.6016L85.602 16.248ZM68.258 16.12L68.6116 16.4736L68.6116 16.4736L68.258 16.12ZM68.258 38.904L67.9044 39.2576L67.9205 39.2736L67.9379 39.2881L68.258 38.904ZM91.618 42.168H91.118V42.668H91.618V42.168ZM91.682 42.168H92.182V41.668H91.682V42.168ZM63.458 52.024H62.958V52.524H63.458V52.024ZM63.458 48.248V47.748H62.958V48.248H63.458ZM85.794 47.864L85.4404 47.5104L85.4404 47.5104L85.794 47.864ZM86.178 42.872H86.678V42.372H86.178V42.872ZM86.114 42.872H85.614V43.372H86.114V42.872ZM86.114 40.952H86.614L85.6508 40.7638L86.114 40.952ZM86.114 14.008L85.6508 14.1962L86.614 14.008H86.114ZM86.114 11.96V11.46H85.614V11.96H86.114ZM91.618 11.96H92.118V11.46H91.618V11.96ZM69.858 39.724H83.938V38.724H69.858V39.724ZM83.938 39.724C84.763 39.724 85.4779 39.5432 85.9556 39.0656L85.2484 38.3584C85.0434 38.5635 84.649 38.724 83.938 38.724V39.724ZM85.9556 39.0656C86.4372 38.5839 86.614 37.8424 86.614 36.984H85.614C85.614 37.747 85.4495 38.1574 85.2484 38.3584L85.9556 39.0656ZM86.614 36.984V17.976H85.614V36.984H86.614ZM86.614 17.976C86.614 17.1176 86.4372 16.3761 85.9556 15.8944L85.2484 16.6016C85.4495 16.8026 85.614 17.213 85.614 17.976H86.614ZM85.9556 15.8944C85.4779 15.4168 84.763 15.236 83.938 15.236V16.236C84.649 16.236 85.0434 16.3965 85.2484 16.6016L85.9556 15.8944ZM83.938 15.236H69.858V16.236H83.938V15.236ZM69.858 15.236C69.4302 15.236 69.0517 15.2694 68.7333 15.3458C68.4198 15.4211 68.123 15.5479 67.9044 15.7664L68.6116 16.4736C68.649 16.4361 68.7469 16.3709 68.9667 16.3182C69.1817 16.2666 69.4752 16.236 69.858 16.236V15.236ZM67.9044 15.7664C67.6859 15.985 67.5591 16.2818 67.4838 16.5953C67.4074 16.9137 67.374 17.2922 67.374 17.72H68.374C68.374 17.3372 68.4046 17.0437 68.4562 16.8287C68.5089 16.6089 68.5741 16.511 68.6116 16.4736L67.9044 15.7664ZM67.374 17.72V37.24H68.374V17.72H67.374ZM67.374 37.24C67.374 37.6877 67.4072 38.0808 67.4828 38.4084C67.5568 38.7293 67.6824 39.0355 67.9044 39.2576L68.6116 38.5504C68.5776 38.5165 68.5112 38.4174 68.4572 38.1836C68.4048 37.9565 68.374 37.6456 68.374 37.24H67.374ZM67.9379 39.2881C68.1582 39.4717 68.4496 39.5738 68.7519 39.6343C69.0624 39.6964 69.4341 39.724 69.858 39.724V38.724C69.4712 38.724 69.1709 38.6983 68.9481 38.6537C68.7171 38.6075 68.6138 38.5496 68.5781 38.5199L67.9379 39.2881ZM91.618 42.668H91.682V41.668H91.618V42.668ZM91.182 42.168V46.968H92.182V42.168H91.182ZM91.182 46.968C91.182 48.5763 90.7803 49.6906 90.0644 50.4064C89.3486 51.1223 88.2343 51.524 86.626 51.524V52.524C88.3884 52.524 89.802 52.0831 90.7716 51.1136C91.7411 50.144 92.182 48.7304 92.182 46.968H91.182ZM86.626 51.524H63.458V52.524H86.626V51.524ZM63.958 52.024V48.248H62.958V52.024H63.958ZM63.458 48.748H84.194V47.748H63.458V48.748ZM84.194 48.748C84.6218 48.748 85.0003 48.7146 85.3187 48.6382C85.6322 48.5629 85.929 48.4361 86.1476 48.2176L85.4404 47.5104C85.403 47.5479 85.3051 47.6131 85.0853 47.6658C84.8703 47.7174 84.5768 47.748 84.194 47.748V48.748ZM86.1476 48.2176C86.3661 47.999 86.4929 47.7022 86.5682 47.3887C86.6446 47.0703 86.678 46.6918 86.678 46.264H85.678C85.678 46.6468 85.6474 46.9403 85.5958 47.1553C85.5431 47.3751 85.4779 47.473 85.4404 47.5104L86.1476 48.2176ZM86.678 46.264V42.872H85.678V46.264H86.678ZM86.178 42.372H86.114V43.372H86.178V42.372ZM86.614 42.872V40.952H85.614V42.872H86.614ZM85.6508 40.7638C85.4113 41.3533 85.0492 41.775 84.5666 42.0558C84.0769 42.3407 83.4291 42.5 82.594 42.5V43.5C83.5509 43.5 84.3858 43.318 85.0694 42.9202C85.7601 42.5183 86.262 41.916 86.5772 41.1402L85.6508 40.7638ZM82.594 42.5H67.426V43.5H82.594V42.5ZM67.426 42.5C65.8177 42.5 64.7034 42.0983 63.9876 41.3824C63.2717 40.6666 62.87 39.5523 62.87 37.944H61.87C61.87 39.7064 62.3109 41.12 63.2804 42.0896C64.25 43.0591 65.6636 43.5 67.426 43.5V42.5ZM62.87 37.944V17.016H61.87V37.944H62.87ZM62.87 17.016C62.87 15.4077 63.2717 14.2934 63.9876 13.5776C64.7034 12.8617 65.8177 12.46 67.426 12.46V11.46C65.6636 11.46 64.25 11.9009 63.2804 12.8704C62.3109 13.84 61.87 15.2536 61.87 17.016H62.87ZM67.426 12.46H82.594V11.46H67.426V12.46ZM82.594 12.46C83.4291 12.46 84.0769 12.6193 84.5666 12.9042C85.0492 13.185 85.4113 13.6067 85.6508 14.1962L86.5772 13.8198C86.262 13.044 85.7601 12.4417 85.0694 12.0398C84.3858 11.642 83.5509 11.46 82.594 11.46V12.46ZM86.614 14.008V11.96H85.614V14.008H86.614ZM86.114 12.46H91.618V11.46H86.114V12.46ZM91.118 11.96V42.168H92.118V11.96H91.118ZM108.654 43V43.5H109.154V43H108.654ZM103.15 43H102.65V43.5H103.15V43ZM103.15 11.96V11.46H102.65V11.96H103.15ZM108.654 11.96H109.154V11.46H108.654V11.96ZM103.022 5.624H102.522V6.124H103.022V5.624ZM103.022 0.119999V-0.380001H102.522V0.119999H103.022ZM108.846 0.119999H109.346V-0.380001H108.846V0.119999ZM108.846 5.624V6.124H109.346V5.624H108.846ZM108.654 42.5H103.15V43.5H108.654V42.5ZM103.65 43V11.96H102.65V43H103.65ZM103.15 12.46H108.654V11.46H103.15V12.46ZM108.154 11.96V43H109.154V11.96H108.154ZM103.522 5.624V0.119999H102.522V5.624H103.522ZM103.022 0.619999H108.846V-0.380001H103.022V0.619999ZM108.346 0.119999V5.624H109.346V0.119999H108.346ZM108.846 5.124H103.022V6.124H108.846V5.124ZM135.927 15.736V16.236H136.427V15.736H135.927ZM128.119 15.736V15.236H127.619V15.736H128.119ZM128.503 38.52L128.149 38.8736L128.149 38.8736L128.503 38.52ZM135.863 38.904H136.363V38.404H135.863V38.904ZM135.863 43V43.5H136.363V43H135.863ZM122.615 15.736H123.115V15.236H122.615V15.736ZM117.623 15.736H117.123V16.236H117.623V15.736ZM117.623 11.96V11.46H117.123V11.96H117.623ZM122.615 11.96V12.46H123.115V11.96H122.615ZM122.615 6.584V6.084H122.115V6.584H122.615ZM128.119 6.584H128.619V6.084H128.119V6.584ZM128.119 11.96H127.619V12.46H128.119V11.96ZM135.927 11.96H136.427V11.46H135.927V11.96ZM135.927 15.236H128.119V16.236H135.927V15.236ZM127.619 15.736V36.92H128.619V15.736H127.619ZM127.619 36.92C127.619 37.3478 127.652 37.7263 127.728 38.0447C127.804 38.3582 127.93 38.655 128.149 38.8736L128.856 38.1664C128.819 38.129 128.753 38.0311 128.701 37.8113C128.649 37.5963 128.619 37.3028 128.619 36.92H127.619ZM128.149 38.8736C128.368 39.0921 128.664 39.2189 128.978 39.2942C129.296 39.3706 129.675 39.404 130.103 39.404V38.404C129.72 38.404 129.426 38.3734 129.211 38.3218C128.991 38.2691 128.893 38.2039 128.856 38.1664L128.149 38.8736ZM130.103 39.404H135.863V38.404H130.103V39.404ZM135.363 38.904V43H136.363V38.904H135.363ZM135.863 42.5H127.671V43.5H135.863V42.5ZM127.671 42.5C126.062 42.5 124.948 42.0983 124.232 41.3824C123.516 40.6666 123.115 39.5523 123.115 37.944H122.115C122.115 39.7064 122.555 41.12 123.525 42.0896C124.494 43.0591 125.908 43.5 127.671 43.5V42.5ZM123.115 37.944V15.736H122.115V37.944H123.115ZM122.615 15.236H117.623V16.236H122.615V15.236ZM118.123 15.736V11.96H117.123V15.736H118.123ZM117.623 12.46H122.615V11.46H117.623V12.46ZM123.115 11.96V6.584H122.115V11.96H123.115ZM122.615 7.084H128.119V6.084H122.615V7.084ZM127.619 6.584V11.96H128.619V6.584H127.619ZM128.119 12.46H135.927V11.46H128.119V12.46ZM135.427 11.96V15.736H136.427V11.96H135.427ZM166.852 38.712L166.498 38.3584L166.498 38.3584L166.852 38.712ZM166.852 16.248L166.498 16.6016L166.498 16.6016L166.852 16.248ZM149.508 16.12L149.862 16.4736L149.862 16.4736L149.508 16.12ZM149.508 38.904L149.154 39.2576L149.17 39.2736L149.188 39.2881L149.508 38.904ZM167.364 11.96V11.46H166.864V11.96H167.364ZM172.868 11.96H173.368V11.46H172.868V11.96ZM172.868 43V43.5H173.368V43H172.868ZM167.364 43H166.864V43.5H167.364V43ZM167.364 40.952H167.864L166.901 40.7638L167.364 40.952ZM167.364 14.008L166.901 14.1962L167.864 14.008H167.364ZM151.108 39.724H165.188V38.724H151.108V39.724ZM165.188 39.724C166.013 39.724 166.728 39.5432 167.206 39.0656L166.498 38.3584C166.293 38.5635 165.899 38.724 165.188 38.724V39.724ZM167.206 39.0656C167.687 38.5839 167.864 37.8424 167.864 36.984H166.864C166.864 37.747 166.699 38.1574 166.498 38.3584L167.206 39.0656ZM167.864 36.984V17.976H166.864V36.984H167.864ZM167.864 17.976C167.864 17.1176 167.687 16.3761 167.206 15.8944L166.498 16.6016C166.699 16.8026 166.864 17.213 166.864 17.976H167.864ZM167.206 15.8944C166.728 15.4168 166.013 15.236 165.188 15.236V16.236C165.899 16.236 166.293 16.3965 166.498 16.6016L167.206 15.8944ZM165.188 15.236H151.108V16.236H165.188V15.236ZM151.108 15.236C150.68 15.236 150.302 15.2694 149.983 15.3458C149.67 15.4211 149.373 15.5479 149.154 15.7664L149.862 16.4736C149.899 16.4361 149.997 16.3709 150.217 16.3182C150.432 16.2666 150.725 16.236 151.108 16.236V15.236ZM149.154 15.7664C148.936 15.985 148.809 16.2818 148.734 16.5953C148.657 16.9137 148.624 17.2922 148.624 17.72H149.624C149.624 17.3372 149.655 17.0437 149.706 16.8287C149.759 16.6089 149.824 16.511 149.862 16.4736L149.154 15.7664ZM148.624 17.72V37.24H149.624V17.72H148.624ZM148.624 37.24C148.624 37.6877 148.657 38.0808 148.733 38.4084C148.807 38.7293 148.932 39.0355 149.154 39.2576L149.862 38.5504C149.828 38.5165 149.761 38.4174 149.707 38.1836C149.655 37.9565 149.624 37.6456 149.624 37.24H148.624ZM149.188 39.2881C149.408 39.4717 149.7 39.5738 150.002 39.6343C150.312 39.6964 150.684 39.724 151.108 39.724V38.724C150.721 38.724 150.421 38.6983 150.198 38.6537C149.967 38.6075 149.864 38.5496 149.828 38.5199L149.188 39.2881ZM167.364 12.46H172.868V11.46H167.364V12.46ZM172.368 11.96V43H173.368V11.96H172.368ZM172.868 42.5H167.364V43.5H172.868V42.5ZM167.864 43V40.952H166.864V43H167.864ZM166.901 40.7638C166.661 41.3533 166.299 41.775 165.817 42.0558C165.327 42.3407 164.679 42.5 163.844 42.5V43.5C164.801 43.5 165.636 43.318 166.319 42.9202C167.01 42.5183 167.512 41.916 167.827 41.1402L166.901 40.7638ZM163.844 42.5H148.676V43.5H163.844V42.5ZM148.676 42.5C147.068 42.5 145.953 42.0983 145.238 41.3824C144.522 40.6666 144.12 39.5523 144.12 37.944H143.12C143.12 39.7064 143.561 41.12 144.53 42.0896C145.5 43.0591 146.914 43.5 148.676 43.5V42.5ZM144.12 37.944V17.016H143.12V37.944H144.12ZM144.12 17.016C144.12 15.4077 144.522 14.2934 145.238 13.5776C145.953 12.8617 147.068 12.46 148.676 12.46V11.46C146.914 11.46 145.5 11.9009 144.53 12.8704C143.561 13.84 143.12 15.2536 143.12 17.016H144.12ZM148.676 12.46H163.844V11.46H148.676V12.46ZM163.844 12.46C164.679 12.46 165.327 12.6193 165.817 12.9042C166.299 13.185 166.661 13.6067 166.901 14.1962L167.827 13.8198C167.512 13.044 167.01 12.4417 166.319 12.0398C165.636 11.642 164.801 11.46 163.844 11.46V12.46ZM167.864 14.008V11.96H166.864V14.008H167.864ZM190.529 43V43.5H191.029V43H190.529ZM185.025 43H184.525V43.5H185.025V43ZM185.025 0.183998V-0.316002H184.525V0.183998H185.025ZM190.529 0.183998H191.029V-0.316002H190.529V0.183998ZM190.529 42.5H185.025V43.5H190.529V42.5ZM185.525 43V0.183998H184.525V43H185.525ZM185.025 0.683998H190.529V-0.316002H185.025V0.683998ZM190.029 0.183998V43H191.029V0.183998H190.029ZM251.876 16.568V17.068H252.376V16.568H251.876ZM246.244 16.568H245.744V17.068H246.244V16.568ZM245.86 7.352L245.506 7.70555L245.522 7.72159L245.54 7.73611L245.86 7.352ZM226.276 7.352L226.596 7.73611L226.614 7.72159L226.63 7.70555L226.276 7.352ZM226.276 38.904L225.922 39.2576L225.938 39.2736L225.956 39.2881L226.276 38.904ZM245.86 38.904L246.18 39.2881L246.198 39.2736L246.214 39.2576L245.86 38.904ZM246.244 29.624V29.124H245.744V29.624H246.244ZM251.876 29.624H252.376V29.124H251.876V29.624ZM251.876 16.068H246.244V17.068H251.876V16.068ZM246.744 16.568V8.952H245.744V16.568H246.744ZM246.744 8.952C246.744 8.50517 246.711 8.11516 246.634 7.79531C246.56 7.48578 246.429 7.17535 246.18 6.96789L245.54 7.73611C245.547 7.74198 245.608 7.80488 245.662 8.02868C245.713 8.24217 245.744 8.54549 245.744 8.952H246.744ZM246.214 6.99844C245.995 6.77988 245.698 6.65305 245.385 6.5778C245.066 6.5014 244.688 6.468 244.26 6.468V7.468C244.643 7.468 244.936 7.49859 245.151 7.55019C245.371 7.60294 245.469 7.66812 245.506 7.70555L246.214 6.99844ZM244.26 6.468H227.876V7.468H244.26V6.468ZM227.876 6.468C227.448 6.468 227.07 6.5014 226.751 6.5778C226.438 6.65305 226.141 6.77988 225.922 6.99844L226.63 7.70555C226.667 7.66812 226.765 7.60294 226.985 7.55019C227.2 7.49859 227.493 7.468 227.876 7.468V6.468ZM225.956 6.96789C225.707 7.17535 225.576 7.48578 225.502 7.79531C225.425 8.11516 225.392 8.50517 225.392 8.952H226.392C226.392 8.54549 226.423 8.24217 226.474 8.02868C226.528 7.80488 226.589 7.74198 226.596 7.73611L225.956 6.96789ZM225.392 8.952V37.24H226.392V8.952H225.392ZM225.392 37.24C225.392 37.6877 225.425 38.0808 225.501 38.4084C225.575 38.7293 225.7 39.0355 225.922 39.2576L226.63 38.5504C226.596 38.5165 226.529 38.4174 226.475 38.1836C226.423 37.9565 226.392 37.6456 226.392 37.24H225.392ZM225.956 39.2881C226.176 39.4717 226.468 39.5738 226.77 39.6343C227.08 39.6964 227.452 39.724 227.876 39.724V38.724C227.489 38.724 227.189 38.6983 226.966 38.6537C226.735 38.6075 226.632 38.5496 226.596 38.5199L225.956 39.2881ZM227.876 39.724H244.26V38.724H227.876V39.724ZM244.26 39.724C244.684 39.724 245.056 39.6964 245.366 39.6343C245.668 39.5738 245.96 39.4717 246.18 39.2881L245.54 38.5199C245.504 38.5496 245.401 38.6075 245.17 38.6537C244.947 38.6983 244.647 38.724 244.26 38.724V39.724ZM246.214 39.2576C246.436 39.0355 246.561 38.7293 246.635 38.4084C246.711 38.0808 246.744 37.6877 246.744 37.24H245.744C245.744 37.6456 245.713 37.9565 245.661 38.1836C245.607 38.4174 245.54 38.5165 245.506 38.5504L246.214 39.2576ZM246.744 37.24V29.624H245.744V37.24H246.744ZM246.244 30.124H251.876V29.124H246.244V30.124ZM251.376 29.624V37.944H252.376V29.624H251.376ZM251.376 37.944C251.376 39.5523 250.974 40.6666 250.258 41.3824C249.543 42.0983 248.428 42.5 246.82 42.5V43.5C248.582 43.5 249.996 43.0591 250.966 42.0896C251.935 41.12 252.376 39.7064 252.376 37.944H251.376ZM246.82 42.5H225.316V43.5H246.82V42.5ZM225.316 42.5C223.708 42.5 222.593 42.0983 221.878 41.3824C221.162 40.6666 220.76 39.5523 220.76 37.944H219.76C219.76 39.7064 220.201 41.12 221.17 42.0896C222.14 43.0591 223.554 43.5 225.316 43.5V42.5ZM220.76 37.944V8.248H219.76V37.944H220.76ZM220.76 8.248C220.76 6.63974 221.162 5.52538 221.878 4.80955C222.593 4.09372 223.708 3.692 225.316 3.692V2.692C223.554 2.692 222.14 3.13294 221.17 4.10244C220.201 5.07195 219.76 6.48559 219.76 8.248H220.76ZM225.316 3.692H246.82V2.692H225.316V3.692ZM246.82 3.692C248.428 3.692 249.543 4.09372 250.258 4.80955C250.974 5.52538 251.376 6.63974 251.376 8.248H252.376C252.376 6.48559 251.935 5.07195 250.966 4.10244C249.996 3.13294 248.582 2.692 246.82 2.692V3.692ZM251.376 8.248V16.568H252.376V8.248H251.376ZM278.6 11.96H279.1V11.46H278.6V11.96ZM278.6 15.864V16.364H279.1V15.864H278.6ZM266.952 43V43.5H267.452V43H266.952ZM261.448 43H260.948V43.5H261.448V43ZM261.448 11.96V11.46H260.948V11.96H261.448ZM266.952 11.96H267.452V11.46H266.952V11.96ZM266.952 15.864H266.452L267.435 15.9909L266.952 15.864ZM271.944 12.46H278.6V11.46H271.944V12.46ZM278.1 11.96V15.864H279.1V11.96H278.1ZM278.6 15.364H271.112V16.364H278.6V15.364ZM271.112 15.364C269.628 15.364 268.429 15.7954 267.614 16.7365C266.81 17.664 266.452 19.0031 266.452 20.664H267.452C267.452 19.1249 267.787 18.064 268.369 17.3915C268.94 16.7326 269.822 16.364 271.112 16.364V15.364ZM266.452 20.664V43H267.452V20.664H266.452ZM266.952 42.5H261.448V43.5H266.952V42.5ZM261.948 43V11.96H260.948V43H261.948ZM261.448 12.46H266.952V11.46H261.448V12.46ZM266.452 11.96V15.864H267.452V11.96H266.452ZM267.435 15.9909C267.756 14.7661 268.295 13.8966 269.02 13.3299C269.743 12.7638 270.704 12.46 271.944 12.46V11.46C270.538 11.46 269.344 11.8069 268.403 12.5421C267.464 13.2767 266.829 14.3593 266.468 15.7371L267.435 15.9909ZM289.874 25.208H289.374V25.708H289.874V25.208ZM308.818 25.208V25.708H309.318V25.208H308.818ZM290.258 16.12L290.612 16.4736L290.612 16.4736L290.258 16.12ZM314.258 28.984V29.484H314.758V28.984H314.258ZM289.874 28.984V28.484H289.374V28.984H289.874ZM290.258 38.904L289.904 39.2576L289.92 39.2736L289.938 39.2881L290.258 38.904ZM308.242 38.904L307.888 38.5504L307.888 38.5504L308.242 38.904ZM308.626 34.232V33.732H308.126V34.232H308.626ZM314.066 34.232H314.566V33.732H314.066V34.232ZM289.874 25.708H308.818V24.708H289.874V25.708ZM309.318 25.208V17.72H308.318V25.208H309.318ZM309.318 17.72C309.318 17.2922 309.285 16.9137 309.208 16.5953C309.133 16.2818 309.006 15.985 308.788 15.7664L308.08 16.4736C308.118 16.511 308.183 16.6089 308.236 16.8287C308.287 17.0437 308.318 17.3372 308.318 17.72H309.318ZM308.788 15.7664C308.569 15.5479 308.272 15.4211 307.959 15.3458C307.64 15.2694 307.262 15.236 306.834 15.236V16.236C307.217 16.236 307.51 16.2666 307.725 16.3182C307.945 16.3709 308.043 16.4361 308.08 16.4736L308.788 15.7664ZM306.834 15.236H291.858V16.236H306.834V15.236ZM291.858 15.236C291.43 15.236 291.052 15.2694 290.733 15.3458C290.42 15.4211 290.123 15.5479 289.904 15.7664L290.612 16.4736C290.649 16.4361 290.747 16.3709 290.967 16.3182C291.182 16.2666 291.475 16.236 291.858 16.236V15.236ZM289.904 15.7664C289.686 15.985 289.559 16.2818 289.484 16.5953C289.407 16.9137 289.374 17.2922 289.374 17.72H290.374C290.374 17.3372 290.405 17.0437 290.456 16.8287C290.509 16.6089 290.574 16.511 290.612 16.4736L289.904 15.7664ZM289.374 17.72V25.208H290.374V17.72H289.374ZM289.426 12.46H309.202V11.46H289.426V12.46ZM309.202 12.46C310.81 12.46 311.925 12.8617 312.64 13.5776C313.356 14.2934 313.758 15.4077 313.758 17.016H314.758C314.758 15.2536 314.317 13.84 313.348 12.8704C312.378 11.9009 310.964 11.46 309.202 11.46V12.46ZM313.758 17.016V28.984H314.758V17.016H313.758ZM314.258 28.484H289.874V29.484H314.258V28.484ZM289.374 28.984V37.24H290.374V28.984H289.374ZM289.374 37.24C289.374 37.6877 289.407 38.0808 289.483 38.4084C289.557 38.7293 289.682 39.0355 289.904 39.2576L290.612 38.5504C290.578 38.5165 290.511 38.4174 290.457 38.1836C290.405 37.9565 290.374 37.6456 290.374 37.24H289.374ZM289.938 39.2881C290.158 39.4717 290.45 39.5738 290.752 39.6343C291.062 39.6964 291.434 39.724 291.858 39.724V38.724C291.471 38.724 291.171 38.6983 290.948 38.6537C290.717 38.6075 290.614 38.5496 290.578 38.5199L289.938 39.2881ZM291.858 39.724H306.642V38.724H291.858V39.724ZM306.642 39.724C307.085 39.724 307.468 39.6966 307.78 39.6343C308.076 39.5751 308.383 39.4705 308.596 39.2576L307.888 38.5504C307.893 38.5462 307.879 38.5613 307.825 38.5844C307.772 38.6071 307.694 38.6317 307.584 38.6537C307.362 38.698 307.052 38.724 306.642 38.724V39.724ZM308.596 39.2576C308.818 39.0355 308.943 38.7293 309.017 38.4084C309.093 38.0808 309.126 37.6877 309.126 37.24H308.126C308.126 37.6456 308.095 37.9565 308.043 38.1836C307.989 38.4174 307.922 38.5165 307.888 38.5504L308.596 39.2576ZM309.126 37.24V34.232H308.126V37.24H309.126ZM308.626 34.732H314.066V33.732H308.626V34.732ZM313.566 34.232V37.944H314.566V34.232H313.566ZM313.566 37.944C313.566 39.5523 313.164 40.6666 312.448 41.3824C311.733 42.0983 310.618 42.5 309.01 42.5V43.5C310.772 43.5 312.186 43.0591 313.156 42.0896C314.125 41.12 314.566 39.7064 314.566 37.944H313.566ZM309.01 42.5H289.426V43.5H309.01V42.5ZM289.426 42.5C287.818 42.5 286.703 42.0983 285.988 41.3824C285.272 40.6666 284.87 39.5523 284.87 37.944H283.87C283.87 39.7064 284.311 41.12 285.28 42.0896C286.25 43.0591 287.664 43.5 289.426 43.5V42.5ZM284.87 37.944V17.016H283.87V37.944H284.87ZM284.87 17.016C284.87 15.4077 285.272 14.2934 285.988 13.5776C286.703 12.8617 287.818 12.46 289.426 12.46V11.46C287.664 11.46 286.25 11.9009 285.28 12.8704C284.311 13.84 283.87 15.2536 283.87 17.016H284.87ZM347.102 38.712L346.748 38.3584L346.748 38.3584L347.102 38.712ZM347.102 16.248L346.748 16.6016L346.748 16.6016L347.102 16.248ZM329.758 16.12L330.112 16.4736L330.112 16.4736L329.758 16.12ZM329.758 38.904L329.404 39.2576L329.42 39.2736L329.438 39.2881L329.758 38.904ZM347.614 11.96V11.46H347.114V11.96H347.614ZM353.118 11.96H353.618V11.46H353.118V11.96ZM353.118 43V43.5H353.618V43H353.118ZM347.614 43H347.114V43.5H347.614V43ZM347.614 40.952H348.114L347.151 40.7638L347.614 40.952ZM347.614 14.008L347.151 14.1962L348.114 14.008H347.614ZM331.358 39.724H345.438V38.724H331.358V39.724ZM345.438 39.724C346.263 39.724 346.978 39.5432 347.456 39.0656L346.748 38.3584C346.543 38.5635 346.149 38.724 345.438 38.724V39.724ZM347.456 39.0656C347.937 38.5839 348.114 37.8424 348.114 36.984H347.114C347.114 37.747 346.949 38.1574 346.748 38.3584L347.456 39.0656ZM348.114 36.984V17.976H347.114V36.984H348.114ZM348.114 17.976C348.114 17.1176 347.937 16.3761 347.456 15.8944L346.748 16.6016C346.949 16.8026 347.114 17.213 347.114 17.976H348.114ZM347.456 15.8944C346.978 15.4168 346.263 15.236 345.438 15.236V16.236C346.149 16.236 346.543 16.3965 346.748 16.6016L347.456 15.8944ZM345.438 15.236H331.358V16.236H345.438V15.236ZM331.358 15.236C330.93 15.236 330.552 15.2694 330.233 15.3458C329.92 15.4211 329.623 15.5479 329.404 15.7664L330.112 16.4736C330.149 16.4361 330.247 16.3709 330.467 16.3182C330.682 16.2666 330.975 16.236 331.358 16.236V15.236ZM329.404 15.7664C329.186 15.985 329.059 16.2818 328.984 16.5953C328.907 16.9137 328.874 17.2922 328.874 17.72H329.874C329.874 17.3372 329.905 17.0437 329.956 16.8287C330.009 16.6089 330.074 16.511 330.112 16.4736L329.404 15.7664ZM328.874 17.72V37.24H329.874V17.72H328.874ZM328.874 37.24C328.874 37.6877 328.907 38.0808 328.983 38.4084C329.057 38.7293 329.182 39.0355 329.404 39.2576L330.112 38.5504C330.078 38.5165 330.011 38.4174 329.957 38.1836C329.905 37.9565 329.874 37.6456 329.874 37.24H328.874ZM329.438 39.2881C329.658 39.4717 329.95 39.5738 330.252 39.6343C330.562 39.6964 330.934 39.724 331.358 39.724V38.724C330.971 38.724 330.671 38.6983 330.448 38.6537C330.217 38.6075 330.114 38.5496 330.078 38.5199L329.438 39.2881ZM347.614 12.46H353.118V11.46H347.614V12.46ZM352.618 11.96V43H353.618V11.96H352.618ZM353.118 42.5H347.614V43.5H353.118V42.5ZM348.114 43V40.952H347.114V43H348.114ZM347.151 40.7638C346.911 41.3533 346.549 41.775 346.067 42.0558C345.577 42.3407 344.929 42.5 344.094 42.5V43.5C345.051 43.5 345.886 43.318 346.569 42.9202C347.26 42.5183 347.762 41.916 348.077 41.1402L347.151 40.7638ZM344.094 42.5H328.926V43.5H344.094V42.5ZM328.926 42.5C327.318 42.5 326.203 42.0983 325.488 41.3824C324.772 40.6666 324.37 39.5523 324.37 37.944H323.37C323.37 39.7064 323.811 41.12 324.78 42.0896C325.75 43.0591 327.164 43.5 328.926 43.5V42.5ZM324.37 37.944V17.016H323.37V37.944H324.37ZM324.37 17.016C324.37 15.4077 324.772 14.2934 325.488 13.5776C326.203 12.8617 327.318 12.46 328.926 12.46V11.46C327.164 11.46 325.75 11.9009 324.78 12.8704C323.811 13.84 323.37 15.2536 323.37 17.016H324.37ZM328.926 12.46H344.094V11.46H328.926V12.46ZM344.094 12.46C344.929 12.46 345.577 12.6193 346.067 12.9042C346.549 13.185 346.911 13.6067 347.151 14.1962L348.077 13.8198C347.762 13.044 347.26 12.4417 346.569 12.0398C345.886 11.642 345.051 11.46 344.094 11.46V12.46ZM348.114 14.008V11.96H347.114V14.008H348.114ZM379.739 15.736V16.236H380.239V15.736H379.739ZM371.931 15.736V15.236H371.431V15.736H371.931ZM372.315 38.52L371.961 38.8736L371.961 38.8736L372.315 38.52ZM379.675 38.904H380.175V38.404H379.675V38.904ZM379.675 43V43.5H380.175V43H379.675ZM366.427 15.736H366.927V15.236H366.427V15.736ZM361.435 15.736H360.935V16.236H361.435V15.736ZM361.435 11.96V11.46H360.935V11.96H361.435ZM366.427 11.96V12.46H366.927V11.96H366.427ZM366.427 6.584V6.084H365.927V6.584H366.427ZM371.931 6.584H372.431V6.084H371.931V6.584ZM371.931 11.96H371.431V12.46H371.931V11.96ZM379.739 11.96H380.239V11.46H379.739V11.96ZM379.739 15.236H371.931V16.236H379.739V15.236ZM371.431 15.736V36.92H372.431V15.736H371.431ZM371.431 36.92C371.431 37.3478 371.464 37.7263 371.541 38.0447C371.616 38.3582 371.743 38.655 371.961 38.8736L372.669 38.1664C372.631 38.129 372.566 38.0311 372.513 37.8113C372.462 37.5963 372.431 37.3028 372.431 36.92H371.431ZM371.961 38.8736C372.18 39.0921 372.477 39.2189 372.79 39.2942C373.109 39.3706 373.487 39.404 373.915 39.404V38.404C373.532 38.404 373.239 38.3734 373.024 38.3218C372.804 38.2691 372.706 38.2039 372.669 38.1664L371.961 38.8736ZM373.915 39.404H379.675V38.404H373.915V39.404ZM379.175 38.904V43H380.175V38.904H379.175ZM379.675 42.5H371.483V43.5H379.675V42.5ZM371.483 42.5C369.875 42.5 368.76 42.0983 368.045 41.3824C367.329 40.6666 366.927 39.5523 366.927 37.944H365.927C365.927 39.7064 366.368 41.12 367.337 42.0896C368.307 43.0591 369.721 43.5 371.483 43.5V42.5ZM366.927 37.944V15.736H365.927V37.944H366.927ZM366.427 15.236H361.435V16.236H366.427V15.236ZM361.935 15.736V11.96H360.935V15.736H361.935ZM361.435 12.46H366.427V11.46H361.435V12.46ZM366.927 11.96V6.584H365.927V11.96H366.927ZM366.427 7.084H371.931V6.084H366.427V7.084ZM371.431 6.584V11.96H372.431V6.584H371.431ZM371.931 12.46H379.739V11.46H371.931V12.46ZM379.239 11.96V15.736H380.239V11.96H379.239ZM411.049 16.12L410.664 16.4401L410.679 16.4575L410.695 16.4736L411.049 16.12ZM393.193 16.12L392.839 15.7664L392.823 15.7825L392.808 15.7999L393.193 16.12ZM393.193 38.904L392.808 39.2241L392.837 39.259L392.872 39.2881L393.193 38.904ZM411.049 38.904L411.402 39.2576L411.402 39.2576L411.049 38.904ZM411.933 37.24V17.72H410.933V37.24H411.933ZM411.933 17.72C411.933 17.2922 411.899 16.9137 411.823 16.5953C411.747 16.2818 411.621 15.985 411.402 15.7664L410.695 16.4736C410.732 16.511 410.798 16.6089 410.85 16.8287C410.902 17.0437 410.933 17.3372 410.933 17.72H411.933ZM411.433 15.7999C411.225 15.5509 410.915 15.4201 410.605 15.3458C410.285 15.269 409.895 15.236 409.449 15.236V16.236C409.855 16.236 410.158 16.267 410.372 16.3182C410.596 16.3719 410.659 16.433 410.664 16.4401L411.433 15.7999ZM409.449 15.236H394.857V16.236H409.449V15.236ZM394.857 15.236C394.409 15.236 394.016 15.2692 393.688 15.3448C393.367 15.4188 393.061 15.5444 392.839 15.7664L393.546 16.4736C393.58 16.4396 393.679 16.3732 393.913 16.3192C394.14 16.2668 394.451 16.236 394.857 16.236V15.236ZM392.808 15.7999C392.625 16.0202 392.523 16.3116 392.462 16.6139C392.4 16.9244 392.373 17.2961 392.373 17.72H393.373C393.373 17.3332 393.398 17.0329 393.443 16.8101C393.489 16.5791 393.547 16.4758 393.577 16.4401L392.808 15.7999ZM392.373 17.72V37.24H393.373V17.72H392.373ZM392.373 37.24C392.373 37.6841 392.4 38.0705 392.461 38.3904C392.521 38.7002 392.622 39.0005 392.808 39.2241L393.577 38.5839C393.55 38.5515 393.491 38.4465 393.444 38.2016C393.398 37.9668 393.373 37.6493 393.373 37.24H392.373ZM392.872 39.2881C393.096 39.4744 393.396 39.5754 393.706 39.635C394.026 39.6965 394.412 39.724 394.857 39.724V38.724C394.447 38.724 394.13 38.6981 393.895 38.653C393.65 38.6059 393.545 38.5469 393.513 38.5199L392.872 39.2881ZM394.857 39.724H409.449V38.724H394.857V39.724ZM409.449 39.724C409.892 39.724 410.275 39.6966 410.587 39.6343C410.883 39.5751 411.189 39.4705 411.402 39.2576L410.695 38.5504C410.699 38.5462 410.685 38.5613 410.632 38.5844C410.579 38.6071 410.5 38.6317 410.39 38.6537C410.169 38.698 409.859 38.724 409.449 38.724V39.724ZM411.402 39.2576C411.624 39.0355 411.75 38.7293 411.824 38.4084C411.899 38.0808 411.933 37.6877 411.933 37.24H410.933C410.933 37.6456 410.902 37.9565 410.849 38.1836C410.795 38.4174 410.729 38.5165 410.695 38.5504L411.402 39.2576ZM392.489 12.46H411.817V11.46H392.489V12.46ZM411.817 12.46C413.425 12.46 414.539 12.8617 415.255 13.5776C415.971 14.2934 416.373 15.4077 416.373 17.016H417.373C417.373 15.2536 416.932 13.84 415.962 12.8704C414.993 11.9009 413.579 11.46 411.817 11.46V12.46ZM416.373 17.016V37.944H417.373V17.016H416.373ZM416.373 37.944C416.373 39.5523 415.971 40.6666 415.255 41.3824C414.539 42.0983 413.425 42.5 411.817 42.5V43.5C413.579 43.5 414.993 43.0591 415.962 42.0896C416.932 41.12 417.373 39.7064 417.373 37.944H416.373ZM411.817 42.5H392.489V43.5H411.817V42.5ZM392.489 42.5C390.88 42.5 389.766 42.0983 389.05 41.3824C388.334 40.6666 387.933 39.5523 387.933 37.944H386.933C386.933 39.7064 387.373 41.12 388.343 42.0896C389.312 43.0591 390.726 43.5 392.489 43.5V42.5ZM387.933 37.944V17.016H386.933V37.944H387.933ZM387.933 17.016C387.933 15.4077 388.334 14.2934 389.05 13.5776C389.766 12.8617 390.88 12.46 392.489 12.46V11.46C390.726 11.46 389.312 11.9009 388.343 12.8704C387.373 13.84 386.933 15.2536 386.933 17.016H387.933ZM444.912 11.96H445.412V11.46H444.912V11.96ZM444.912 15.864V16.364H445.412V15.864H444.912ZM433.264 43V43.5H433.764V43H433.264ZM427.76 43H427.26V43.5H427.76V43ZM427.76 11.96V11.46H427.26V11.96H427.76ZM433.264 11.96H433.764V11.46H433.264V11.96ZM433.264 15.864H432.764L433.748 15.9909L433.264 15.864ZM438.256 12.46H444.912V11.46H438.256V12.46ZM444.412 11.96V15.864H445.412V11.96H444.412ZM444.912 15.364H437.424V16.364H444.912V15.364ZM437.424 15.364C435.94 15.364 434.742 15.7954 433.926 16.7365C433.122 17.664 432.764 19.0031 432.764 20.664H433.764C433.764 19.1249 434.099 18.064 434.682 17.3915C435.253 16.7326 436.135 16.364 437.424 16.364V15.364ZM432.764 20.664V43H433.764V20.664H432.764ZM433.264 42.5H427.76V43.5H433.264V42.5ZM428.26 43V11.96H427.26V43H428.26ZM427.76 12.46H433.264V11.46H427.76V12.46ZM432.764 11.96V15.864H433.764V11.96H432.764ZM433.748 15.9909C434.069 14.7661 434.607 13.8966 435.332 13.3299C436.056 12.7638 437.016 12.46 438.256 12.46V11.46C436.85 11.46 435.656 11.8069 434.716 12.5421C433.777 13.2767 433.142 14.3593 432.78 15.7371L433.748 15.9909Z" fill="black" fill-opacity="0.74"/>
<defs>
<filter id="filter0_i_1_75" x="0.837402" y="0.119995" width="444.075" height="55.904" filterUnits="userSpaceOnUse" color-interpolation-filters="sRGB">
<feFlood flood-opacity="0" result="BackgroundImageFix"/>
<feBlend mode="normal" in="SourceGraphic" in2="BackgroundImageFix" result="shape"/>
<feColorMatrix in="SourceAlpha" type="matrix" values="0 0 0 0 0 0 0 0 0 0 0 0 0 0 0 0 0 0 127 0" result="hardAlpha"/>
<feOffset dy="4"/>
<feGaussianBlur stdDeviation="2"/>
<feComposite in2="hardAlpha" operator="arithmetic" k2="-1" k3="1"/>
<feColorMatrix type="matrix" values="0 0 0 0 0 0 0 0 0 0 0 0 0 0 0 0 0 0 0.25 0"/>
<feBlend mode="normal" in2="shape" result="effect1_innerShadow_1_75"/>
</filter>
</defs>
</svg>
