<svg width="33" height="33" viewBox="0 0 33 33" fill="none" xmlns="http://www.w3.org/2000/svg">
<g clip-path="url(#clip0_6056_3029)">
<path d="M17 2.88125C21.275 2.88125 21.7813 2.9 23.4625 2.975C25.025 3.04375 25.8688 3.30625 26.4313 3.525C27.175 3.8125 27.7125 4.1625 28.2688 4.71875C28.8313 5.28125 29.175 5.8125 29.4625 6.55625C29.6813 7.11875 29.9438 7.96875 30.0125 9.525C30.0875 11.2125 30.1063 11.7188 30.1063 15.9875C30.1063 20.2625 30.0875 20.7688 30.0125 22.45C29.9438 24.0125 29.6813 24.8563 29.4625 25.4188C29.175 26.1625 28.825 26.7 28.2688 27.2563C27.7063 27.8188 27.175 28.1625 26.4313 28.45C25.8688 28.6688 25.0188 28.9313 23.4625 29C21.775 29.075 21.2688 29.0938 17 29.0938C12.725 29.0938 12.2188 29.075 10.5375 29C8.975 28.9313 8.13125 28.6688 7.56875 28.45C6.825 28.1625 6.2875 27.8125 5.73125 27.2563C5.16875 26.6938 4.825 26.1625 4.5375 25.4188C4.31875 24.8563 4.05625 24.0063 3.9875 22.45C3.9125 20.7625 3.89375 20.2563 3.89375 15.9875C3.89375 11.7125 3.9125 11.2063 3.9875 9.525C4.05625 7.9625 4.31875 7.11875 4.5375 6.55625C4.825 5.8125 5.175 5.275 5.73125 4.71875C6.29375 4.15625 6.825 3.8125 7.56875 3.525C8.13125 3.30625 8.98125 3.04375 10.5375 2.975C12.2188 2.9 12.725 2.88125 17 2.88125ZM17 0C12.6563 0 12.1125 0.01875 10.4063 0.09375C8.70625 0.16875 7.5375 0.44375 6.525 0.8375C5.46875 1.25 4.575 1.79375 3.6875 2.6875C2.79375 3.575 2.25 4.46875 1.8375 5.51875C1.44375 6.5375 1.16875 7.7 1.09375 9.4C1.01875 11.1125 1 11.6562 1 16C1 20.3438 1.01875 20.8875 1.09375 22.5938C1.16875 24.2938 1.44375 25.4625 1.8375 26.475C2.25 27.5313 2.79375 28.425 3.6875 29.3125C4.575 30.2 5.46875 30.75 6.51875 31.1562C7.5375 31.55 8.7 31.825 10.4 31.9C12.1063 31.975 12.65 31.9937 16.9938 31.9937C21.3375 31.9937 21.8813 31.975 23.5875 31.9C25.2875 31.825 26.4563 31.55 27.4688 31.1562C28.5188 30.75 29.4125 30.2 30.3 29.3125C31.1875 28.425 31.7375 27.5313 32.1438 26.4813C32.5375 25.4625 32.8125 24.3 32.8875 22.6C32.9625 20.8938 32.9813 20.35 32.9813 16.0063C32.9813 11.6625 32.9625 11.1188 32.8875 9.4125C32.8125 7.7125 32.5375 6.54375 32.1438 5.53125C31.75 4.46875 31.2063 3.575 30.3125 2.6875C29.425 1.8 28.5313 1.25 27.4813 0.84375C26.4625 0.45 25.3 0.175 23.6 0.1C21.8875 0.01875 21.3438 0 17 0Z" fill="#000100"/>
<path d="M17 7.78125C12.4625 7.78125 8.78125 11.4625 8.78125 16C8.78125 20.5375 12.4625 24.2188 17 24.2188C21.5375 24.2188 25.2188 20.5375 25.2188 16C25.2188 11.4625 21.5375 7.78125 17 7.78125ZM17 21.3312C14.0563 21.3312 11.6687 18.9438 11.6687 16C11.6687 13.0563 14.0563 10.6687 17 10.6687C19.9438 10.6687 22.3312 13.0563 22.3312 16C22.3312 18.9438 19.9438 21.3312 17 21.3312Z" fill="#000100"/>
<path d="M27.4625 7.45626C27.4625 8.51876 26.6 9.37501 25.5438 9.37501C24.4813 9.37501 23.625 8.51251 23.625 7.45626C23.625 6.39376 24.4875 5.53751 25.5438 5.53751C26.6 5.53751 27.4625 6.40001 27.4625 7.45626Z" fill="#000100"/>
</g>
<defs>
<clipPath id="clip0_6056_3029">
<rect width="32" height="32" fill="white" transform="translate(1)"/>
</clipPath>
</defs>
</svg>
