<svg width="33" height="32" viewBox="0 0 33 32" fill="none" xmlns="http://www.w3.org/2000/svg">
<g clip-path="url(#clip0_6048_3027)">
<path d="M29.7116 0H3.2884C2.68148 0 2.09942 0.241099 1.67026 0.670258C1.2411 1.09942 1 1.68148 1 2.2884V28.7116C1 29.3185 1.2411 29.9006 1.67026 30.3297C2.09942 30.7589 2.68148 31 3.2884 31H29.7116C30.3185 31 30.9006 30.7589 31.3297 30.3297C31.7589 29.9006 32 29.3185 32 28.7116V2.2884C32 1.68148 31.7589 1.09942 31.3297 0.670258C30.9006 0.241099 30.3185 0 29.7116 0ZM10.2397 26.4081H5.57896V11.6035H10.2397V26.4081ZM7.90611 9.55188C7.37743 9.5489 6.86147 9.38938 6.42337 9.09345C5.98526 8.79751 5.64463 8.37844 5.44447 7.8891C5.24431 7.39976 5.19359 6.8621 5.29871 6.34396C5.40383 5.82583 5.66008 5.35044 6.03512 4.9778C6.41016 4.60516 6.88718 4.35197 7.40598 4.25018C7.92478 4.14839 8.4621 4.20256 8.95015 4.40586C9.43819 4.60915 9.85507 4.95247 10.1482 5.39247C10.4413 5.83247 10.5975 6.34943 10.5971 6.87813C10.6021 7.23209 10.5357 7.58343 10.4021 7.91121C10.2684 8.23899 10.0701 8.5365 9.81895 8.786C9.56783 9.03551 9.26905 9.23191 8.94042 9.36349C8.61179 9.49507 8.26003 9.55913 7.90611 9.55188ZM27.4189 26.421H22.7603V18.3331C22.7603 15.9478 21.7463 15.2115 20.4374 15.2115C19.0553 15.2115 17.6991 16.2535 17.6991 18.3933V26.421H13.0383V11.6142H17.5204V13.6658H17.5807C18.0306 12.7552 19.6065 11.1988 22.0111 11.1988C24.6117 11.1988 27.421 12.7423 27.421 17.2631L27.4189 26.421Z" fill="black"/>
</g>
<defs>
<clipPath id="clip0_6048_3027">
<rect width="31" height="31" fill="white" transform="translate(1)"/>
</clipPath>
</defs>
</svg>
