<svg width="50" height="32" viewBox="0 0 50 32" fill="none" xmlns="http://www.w3.org/2000/svg">
<path d="M49.997 18.7361C49.8957 20.539 49.1017 22.233 47.7809 23.4644C46.4601 24.6957 44.7147 25.3691 42.9091 25.3439H25.8728C25.4978 25.3404 25.1393 25.1894 24.8748 24.9236C24.6102 24.6579 24.4609 24.2986 24.4592 23.9236V5.58046C24.4468 5.26569 24.53 4.95455 24.6978 4.68796C24.8656 4.42137 25.1102 4.21182 25.3994 4.08686C25.3994 4.08686 26.9663 3.00001 30.2669 3.00001C32.2832 2.99759 34.2625 3.54138 35.9946 4.57361C37.3465 5.36899 38.5186 6.43628 39.4368 7.70797C40.3549 8.97966 40.9992 10.4281 41.3288 11.9616C41.9166 11.7953 42.5249 11.7122 43.1358 11.7149C44.052 11.7091 44.96 11.888 45.8056 12.2408C46.6511 12.5936 47.417 13.1132 48.0573 13.7685C48.6977 14.4238 49.1995 15.2014 49.5327 16.0549C49.866 16.9084 50.0239 17.8202 49.997 18.7361Z" fill="black"/>
<path d="M22.3324 6.74067C22.3409 6.66335 22.333 6.58509 22.3093 6.51101C22.2855 6.43693 22.2464 6.36869 22.1945 6.31075C22.1426 6.2528 22.0791 6.20645 22.008 6.17472C21.937 6.14299 21.8601 6.12659 21.7823 6.12659C21.7045 6.12659 21.6276 6.14299 21.5565 6.17472C21.4855 6.20645 21.422 6.2528 21.3701 6.31075C21.3181 6.36869 21.279 6.43693 21.2553 6.51101C21.2315 6.58509 21.2237 6.66335 21.2322 6.74067C20.7654 12.9084 20.4054 18.6894 21.2322 24.8372C21.2471 24.9726 21.3115 25.0978 21.413 25.1887C21.5145 25.2796 21.646 25.3299 21.7823 25.3299C21.9186 25.3299 22.05 25.2796 22.1515 25.1887C22.253 25.0978 22.3174 24.9726 22.3324 24.8372C23.2192 18.6361 22.8458 12.9618 22.3324 6.74067Z" fill="black"/>
<path d="M18.8917 8.87438C18.8764 8.7321 18.8091 8.60051 18.7026 8.50489C18.5961 8.40928 18.4581 8.35638 18.315 8.35638C18.1719 8.35638 18.0338 8.40928 17.9274 8.50489C17.8209 8.60051 17.7535 8.7321 17.7382 8.87438C17.1214 14.1797 17.1214 19.5385 17.7382 24.8438C17.7592 24.9809 17.8285 25.1059 17.9337 25.1962C18.0389 25.2866 18.173 25.3362 18.3116 25.3362C18.4503 25.3362 18.5844 25.2866 18.6896 25.1962C18.7948 25.1059 18.8641 24.9809 18.8851 24.8438C19.5741 19.5431 19.5763 14.1757 18.8917 8.87438Z" fill="black"/>
<path d="M15.4309 8.33428C15.4159 8.19712 15.3508 8.07034 15.248 7.97824C15.1453 7.88614 15.0122 7.83521 14.8742 7.83521C14.7362 7.83521 14.6031 7.88614 14.5003 7.97824C14.3976 8.07034 14.3325 8.19712 14.3174 8.33428C13.7907 13.9619 13.524 19.2162 14.3174 24.8305C14.3174 24.9773 14.3757 25.118 14.4795 25.2218C14.5833 25.3256 14.7241 25.3839 14.8709 25.3839C15.0176 25.3839 15.1584 25.3256 15.2622 25.2218C15.366 25.118 15.4243 24.9773 15.4243 24.8305C16.2444 19.1428 15.991 14.0353 15.4309 8.33428Z" fill="black"/>
<path d="M11.9904 9.94123C11.9904 9.78915 11.93 9.64329 11.8225 9.53575C11.7149 9.42821 11.5691 9.3678 11.417 9.3678C11.2649 9.3678 11.1191 9.42821 11.0115 9.53575C10.904 9.64329 10.8436 9.78915 10.8436 9.94123C10.2068 14.8906 10.2068 19.9011 10.8436 24.8505C10.8587 24.9894 10.9246 25.1177 11.0286 25.211C11.1325 25.3043 11.2673 25.3559 11.407 25.3559C11.5467 25.3559 11.6815 25.3043 11.7854 25.211C11.8894 25.1177 11.9553 24.9894 11.9704 24.8505C12.6605 19.9052 12.6672 14.8884 11.9904 9.94123Z" fill="black"/>
<path d="M8.51653 13.6685C8.51653 13.5182 8.45682 13.3741 8.35053 13.2678C8.24424 13.1615 8.10008 13.1018 7.94976 13.1018C7.79945 13.1018 7.65529 13.1615 7.549 13.2678C7.44271 13.3741 7.383 13.5182 7.383 13.6685C6.56286 17.5092 6.94959 21.0031 7.41634 24.8905C7.43648 25.0175 7.50127 25.1331 7.59905 25.2166C7.69683 25.3001 7.82119 25.346 7.94976 25.346C8.07834 25.346 8.2027 25.3001 8.30048 25.2166C8.39826 25.1331 8.46305 25.0175 8.48319 24.8905C8.99661 20.9498 9.39002 17.5359 8.51653 13.6685Z" fill="black"/>
<path d="M5.06931 13.0818C5.0539 12.9378 4.98579 12.8046 4.87808 12.7078C4.77038 12.611 4.63068 12.5575 4.48588 12.5575C4.34107 12.5575 4.20138 12.611 4.09368 12.7078C3.98597 12.8046 3.91786 12.9378 3.90244 13.0818C3.17565 17.0025 3.41569 20.4564 3.92245 24.3704C3.97579 24.9638 4.98263 24.9572 5.04931 24.3704C5.60941 20.3964 5.86945 17.0425 5.06931 13.0818Z" fill="black"/>
<path d="M1.58865 15.0021C1.57324 14.8581 1.50512 14.7249 1.39742 14.6281C1.28971 14.5313 1.15002 14.4778 1.00522 14.4778C0.860409 14.4778 0.720718 14.5313 0.613012 14.6281C0.505307 14.7249 0.437195 14.8581 0.421781 15.0021C-0.245002 17.6359 -0.0382989 19.8163 0.468456 22.4567C0.483294 22.5905 0.546937 22.7141 0.647202 22.8038C0.747467 22.8936 0.877312 22.9432 1.01188 22.9432C1.14645 22.9432 1.2763 22.8936 1.37657 22.8038C1.47683 22.7141 1.54047 22.5905 1.55531 22.4567C2.14208 19.7629 2.4288 17.6292 1.58865 15.0021Z" fill="black"/>
</svg>
