<svg width="144" height="33" viewBox="0 0 144 33" fill="none" xmlns="http://www.w3.org/2000/svg">
<path d="M19.5021 28.68V20.856C19.5021 20.248 19.4061 19.848 19.2141 19.656C19.0541 19.464 18.6541 19.368 18.0141 19.368H4.04606C1.51806 19.368 0.254063 18.104 0.254063 15.576V6.936C0.254063 4.408 1.51806 3.144 4.04606 3.144H19.7421C22.2701 3.144 23.5341 4.408 23.5341 6.936V11.688H19.3101V7.464C19.3101 6.824 19.2141 6.424 19.0221 6.264C18.8621 6.072 18.4621 5.976 17.8221 5.976H5.96606C5.35806 5.976 4.95806 6.072 4.76606 6.264C4.57406 6.424 4.47806 6.824 4.47806 7.464V15.048C4.47806 15.688 4.57406 16.104 4.76606 16.296C4.95806 16.456 5.35806 16.536 5.96606 16.536H19.8861C22.4141 16.536 23.6781 17.8 23.6781 20.328V29.208C23.6781 31.736 22.4141 33 19.8861 33H4.14206C1.61406 33 0.350063 31.736 0.350063 29.208V24.456H4.57406V28.68C4.57406 29.32 4.67006 29.736 4.86206 29.928C5.05406 30.088 5.45406 30.168 6.06206 30.168H18.0141C18.6541 30.168 19.0541 30.088 19.2141 29.928C19.4061 29.736 19.5021 29.32 19.5021 28.68ZM49.3791 28.68V14.04C49.3791 13.432 49.2831 13.032 49.0911 12.84C48.9311 12.648 48.5311 12.552 47.8911 12.552H36.9471C36.3071 12.552 35.8911 12.648 35.6991 12.84C35.5391 13.032 35.4591 13.432 35.4591 14.04V28.68C35.4591 29.32 35.5391 29.736 35.6991 29.928C35.8911 30.088 36.3071 30.168 36.9471 30.168H47.8911C48.5311 30.168 48.9311 30.088 49.0911 29.928C49.2831 29.736 49.3791 29.32 49.3791 28.68ZM35.1711 9.72H49.6671C52.1951 9.72 53.4591 10.984 53.4591 13.512V29.208C53.4591 31.736 52.1951 33 49.6671 33H35.1711C32.6431 33 31.3791 31.736 31.3791 29.208V13.512C31.3791 10.984 32.6431 9.72 35.1711 9.72ZM78.9527 9.72H83.0807V33H78.9527V31.464C78.5367 32.488 77.6567 33 76.3127 33H64.9367C62.4087 33 61.1447 31.736 61.1447 29.208V9.72H65.2727V28.68C65.2727 29.32 65.3687 29.736 65.5607 29.928C65.7527 30.088 66.1527 30.168 66.7607 30.168H77.3207C77.8967 30.168 78.3127 30.04 78.5687 29.784C78.8247 29.528 78.9527 29.096 78.9527 28.488V9.72ZM98.5344 9.72H109.862C112.39 9.72 113.654 10.984 113.654 13.512V33H109.526V14.04C109.526 13.432 109.43 13.032 109.238 12.84C109.078 12.648 108.678 12.552 108.038 12.552H97.5264C96.9504 12.552 96.5344 12.68 96.2784 12.936C96.0224 13.192 95.8944 13.624 95.8944 14.232V15.816H95.8464V33H91.7184V9.72H95.8464V11.4C96.1984 10.28 97.0944 9.72 98.5344 9.72ZM126.948 30.168H137.508C138.084 30.168 138.5 30.04 138.756 29.784C139.012 29.528 139.14 29.096 139.14 28.488V14.232C139.14 13.624 139.012 13.192 138.756 12.936C138.5 12.68 138.084 12.552 137.508 12.552H126.948C126.34 12.552 125.94 12.648 125.748 12.84C125.556 13.032 125.46 13.432 125.46 14.04V28.68C125.46 29.32 125.556 29.736 125.748 29.928C125.94 30.088 126.34 30.168 126.948 30.168ZM139.14 0.887999H143.268V33H139.14V31.464C138.724 32.488 137.844 33 136.5 33H125.124C122.596 33 121.332 31.736 121.332 29.208V13.512C121.332 10.984 122.596 9.72 125.124 9.72H136.5C137.844 9.72 138.724 10.232 139.14 11.256V0.887999Z" fill="black"/>
</svg>
