<svg width="38" height="38" viewBox="0 0 38 38" fill="none" xmlns="http://www.w3.org/2000/svg">
<path d="M18.4465 2C8.81125 2 1 9.81104 1 19.4462C1 29.0819 8.81125 36.8923 18.4465 36.8923C28.0827 36.8923 35.8931 29.0819 35.8931 19.4462C35.8931 9.81167 28.0827 2.00083 18.4463 2.00083L18.4465 2ZM26.4473 27.1625C26.1348 27.675 25.464 27.8375 24.9515 27.5229C20.8552 25.0208 15.6985 24.4542 9.62562 25.8417C9.04042 25.975 8.45708 25.6083 8.32375 25.0229C8.18979 24.4375 8.555 23.8542 9.14167 23.7208C15.7875 22.2019 21.4881 22.8562 26.0869 25.6667C26.5994 25.9812 26.7619 26.65 26.4473 27.1625ZM28.5827 22.4115C28.189 23.0521 27.3515 23.2542 26.7119 22.8604C22.0223 19.9773 14.8737 19.1425 9.32687 20.8262C8.6075 21.0435 7.84771 20.6381 7.62937 19.92C7.41271 19.2006 7.81833 18.4423 8.53646 18.2235C14.8725 16.301 22.7494 17.2323 28.1348 20.5417C28.7744 20.9354 28.9765 21.7727 28.5827 22.4115ZM28.766 17.4648C23.1431 14.125 13.866 13.8179 8.4975 15.4473C7.63542 15.7087 6.72375 15.2221 6.4625 14.36C6.20125 13.4975 6.6875 12.5865 7.55021 12.3244C13.7129 10.4535 23.9577 10.815 30.4315 14.6581C31.2085 15.1183 31.4627 16.1198 31.0023 16.8942C30.544 17.6696 29.5398 17.9252 28.7669 17.4648H28.766Z" fill="black"/>
</svg>
