<svg width="43" height="43" viewBox="0 0 43 43" fill="none" xmlns="http://www.w3.org/2000/svg">
<g clip-path="url(#clip0_6048_3015)">
<path d="M42.1436 11.0823C41.9005 10.1675 41.4214 9.33256 40.7543 8.66111C40.0871 7.98965 39.2553 7.5052 38.342 7.25624C34.9802 6.35226 21.5427 6.35226 21.5427 6.35226C21.5427 6.35226 8.10522 6.35226 4.74341 7.25624C3.83018 7.5052 2.99836 7.98965 2.3312 8.66111C1.66403 9.33256 1.18492 10.1675 0.941816 11.0823C0.0427247 14.4587 0.0427246 21.5 0.0427246 21.5C0.0427246 21.5 0.0427247 28.5412 0.941816 31.9177C1.18492 32.8325 1.66403 33.6674 2.3312 34.3389C2.99836 35.0103 3.83018 35.4948 4.74341 35.7437C8.10522 36.6477 21.5427 36.6477 21.5427 36.6477C21.5427 36.6477 34.9802 36.6477 38.342 35.7437C39.2553 35.4948 40.0871 35.0103 40.7543 34.3389C41.4214 33.6674 41.9005 32.8325 42.1436 31.9177C43.0427 28.5412 43.0427 21.5 43.0427 21.5C43.0427 21.5 43.0427 14.4587 42.1436 11.0823Z" fill="black"/>
<path d="M17.145 27.8939V15.1063L28.3836 21.5001L17.145 27.8939Z" fill="#FEFEFE"/>
</g>
<defs>
<clipPath id="clip0_6048_3015">
<rect width="43" height="43" fill="white"/>
</clipPath>
</defs>
</svg>
